<svg xmlns="http://www.w3.org/2000/svg" viewBox="0 0 1280 640" font-family="'Cascadia Code','JetBrains Mono',Consolas,'Courier New',monospace" role="img" aria-label="gsoc@katana: ~/dev/schroedinger-sync terminal showcase"><defs><clipPath id="win"><rect x="24" y="24" width="1232" height="592" rx="12"/></clipPath></defs><rect x="0" y="0" width="1280" height="640" fill="#010409"/>
  <rect x="24" y="24" width="1232" height="592" rx="12" fill="#0d1117" stroke="#30363d" stroke-width="1.5"/>
  <g clip-path="url(#win)"><rect x="24" y="24" width="1232" height="46" fill="#161b22"/>
    <line x1="24" y1="70" x2="1256" y2="70" stroke="#30363d" stroke-width="1"/></g>
  <circle cx="52" cy="47" r="7" fill="#ff5f56"/><circle cx="76" cy="47" r="7" fill="#febc2e"/>
  <circle cx="100" cy="47" r="7" fill="#27c93f"/>
  <text x="640" y="52" fill="#8b949e" font-size="16" text-anchor="middle">gsoc@katana: ~/dev/schroedinger-sync</text>
  <text x="1236" y="52" fill="#6e7681" font-size="15" text-anchor="end">schroedinger v2.1.2</text><text x="56" y="118" font-size="19"><tspan fill="#3fb950">gsoc@katana</tspan><tspan fill="#8b949e">:</tspan><tspan fill="#58a6ff">~/dev/schroedinger-sync</tspan><tspan fill="#8b949e">$ </tspan><tspan fill="#e6edf3">schroedinger sync --all</tspan></text><text x="56" y="164" fill="#c9d1d9" font-size="18">&#9656; pull claude.ai threads</text><text x="640" y="164" fill="#e6edf3" font-size="18">142 captured</text><text x="56" y="200" fill="#c9d1d9" font-size="18">&#9656; knowledge + memory</text><rect x="640" y="183" width="90" height="24" rx="5" fill="#238636"/><text x="685.0" y="200" fill="#e6edf3" text-anchor="middle" font-size="14" font-weight="700">merged</text><text x="56" y="236" fill="#c9d1d9" font-size="18">&#9656; write local Markdown</text><text x="640" y="236" fill="#39c5cf" font-size="18">permanent</text><text x="56" y="272" fill="#c9d1d9" font-size="18">&#9656; runtime deps</text><text x="640" y="272" fill="#6e7681" font-size="18">none &#183; single binary</text><text x="56" y="322" fill="#8b949e" font-size="15" letter-spacing="1">// your AI's memory shouldn't live only in the cloud</text><text x="56" y="384" font-size="32" font-weight="800"><tspan fill="#f85149">ephemeral</tspan><tspan fill="#6e7681" font-size="23">  &#9472;&#9472;&#9654;  </tspan><tspan fill="#3fb950">permanent</tspan><tspan fill="#8b949e" font-size="18" font-weight="600">  your history</tspan></text><text x="56" y="436" font-size="19"><tspan fill="#3fb950" font-weight="700">&#10003; Go single binary  &#183;  local-first  &#183;  AGPLv3</tspan></text><text x="56" y="466" font-size="16" fill="#6e7681">the conversation that vanishes on refresh? now Markdown on your disk.</text><text x="56" y="512" font-size="19"><tspan fill="#3fb950">gsoc@katana</tspan><tspan fill="#8b949e">:</tspan><tspan fill="#58a6ff">~/dev/schroedinger-sync</tspan><tspan fill="#8b949e">$ </tspan></text><rect x="470" y="497" width="11" height="20" fill="#3fb950"/><line x1="24" y1="566" x2="1256" y2="566" stroke="#30363d" stroke-width="1"/><text x="56" y="596" font-size="15" fill="#6e7681">AGPLv3 &#183; Go &#183; single binary &#183; local-first</text><text x="1200" y="596" font-size="15" fill="#d29922" text-anchor="end" letter-spacing="0.5">keilerhirsch</text><rect x="1211" y="582" width="10" height="16" fill="#3fb950"/></svg>